<svg xmlns="http://www.w3.org/2000/svg" xmlns:xlink="http://www.w3.org/1999/xlink" width="480" height="480" viewBox="0 0 480 480">
  <defs>
    <style>
      .cls-1, .cls-2 {
        fill-rule: evenodd;
      }

      .cls-1 {
        fill: url(#linear-gradient);
      }

      .cls-2 {
        fill: #fff;
      }
    </style>
    <linearGradient id="linear-gradient" x1="377.58" y1="478.312" x2="102.419" y2="1.719" gradientUnits="userSpaceOnUse">
      <stop offset="0" stop-color="#00346b"/>
      <stop offset="0.873" stop-color="#007aff"/>
      <stop offset="1" stop-color="#007aff"/>
    </linearGradient>
  </defs>
  <path id="Rectángulo_1" data-name="Rectángulo 1" class="cls-1" d="M86.968,1.734H393.033a85.28,85.28,0,0,1,85.279,85.28v306a85.28,85.28,0,0,1-85.279,85.28H91.688a90,90,0,0,1-90-90V87.014A85.28,85.28,0,0,1,86.968,1.734Z"/>
  <path id="_-_" data-name="{-}" class="cls-2" d="M181.482,126.843a104.9,104.9,0,0,0-23.929,2.471q-7.9,1.886-12.494,5.649-6.132,4.943-9.609,14.241t-3.476,30.129q0,2.708.118,5.413v4q0,13.888-2.349,19.715a17.521,17.521,0,0,1-6.872,8.649q-4.522,2.826-13.566,2.824v40.433q8.825,0.237,13.473,2.829a16.657,16.657,0,0,1,7.119,8.362q2.472,5.77,2.473,19.433,0,2.709-.12,5.3-0.234,4.243-.234,8.482,0,19.2,4.122,28.8a29,29,0,0,0,13.782,14.6q9.659,5.005,32.632,5.006H197.4V314.973q-11.55,0-15.379-2a11.468,11.468,0,0,1-5.48-6.828q-1.65-4.829-1.65-20.722,0-17.659-2.709-25.724t-6.535-12.01q-3.829-3.944-11.719-7.594,7.539-3.3,10.84-6.474a27.688,27.688,0,0,0,6.715-11.181q3.181-9.061,3.3-24.894t0.942-19.363q1.53-6.474,5.241-9.592t11.133-3.12h5.3V126.843H181.482ZM205.4,258.006h69.749v-37.1H205.4v37.1Zm93.741-131.163a104.918,104.918,0,0,1,23.928,2.471q7.9,1.886,12.494,5.649,6.129,4.943,9.607,14.241t3.478,30.129q0,2.708-.117,5.413v4q0,13.888,2.349,19.715a17.492,17.492,0,0,0,6.871,8.649q4.52,2.826,13.567,2.824v40.433q-8.826.237-13.474,2.829a16.651,16.651,0,0,0-7.121,8.362q-2.471,5.77-2.47,19.433,0,2.709.119,5.3,0.236,4.243.235,8.482,0,19.2-4.123,28.8a28.993,28.993,0,0,1-13.784,14.6q-9.659,5.005-32.63,5.006H283.229V314.973q11.549,0,15.38-2a11.47,11.47,0,0,0,5.479-6.828q1.648-4.829,1.65-20.722,0-17.659,2.707-25.724t6.537-12.01q3.826-3.944,11.719-7.594-7.542-3.3-10.839-6.474a27.633,27.633,0,0,1-6.715-11.181q-3.186-9.061-3.3-24.894T304.9,178.181q-1.531-6.474-5.243-9.592t-11.131-3.12h-5.3V126.843h15.914Z"/>
</svg>
